<svg id="visual" viewBox="0 0 1920 1080" width="1920" height="1080" xmlns="http://www.w3.org/2000/svg" xmlns:xlink="http://www.w3.org/1999/xlink" version="1.1"><rect x="0" y="0" width="1920" height="1080" fill="#333333"></rect><defs><linearGradient id="grad1_0" x1="43.8%" y1="100%" x2="100%" y2="0%"><stop offset="14.444444444444446%" stop-color="#333333" stop-opacity="1"></stop><stop offset="85.55555555555554%" stop-color="#333333" stop-opacity="1"></stop></linearGradient></defs><defs><linearGradient id="grad2_0" x1="0%" y1="100%" x2="56.3%" y2="0%"><stop offset="14.444444444444446%" stop-color="#333333" stop-opacity="1"></stop><stop offset="85.55555555555554%" stop-color="#333333" stop-opacity="1"></stop></linearGradient></defs><g transform="translate(1920, 1080)"><path d="M-756 0C-729.7 -98.6 -703.4 -197.2 -652.3 -270.2C-601.1 -343.1 -525.2 -390.4 -466 -466C-406.7 -541.6 -364.2 -645.4 -289.3 -698.5C-214.4 -751.5 -107.2 -753.8 0 -756L0 0Z" fill="#0f7461"></path></g><g transform="translate(0, 0)"><path d="M756 0C670.4 68.2 584.7 136.5 559.9 231.9C535 327.3 570.9 449.9 534.6 534.6C498.2 619.2 389.7 666 288.5 696.6C187.4 727.2 93.7 741.6 0 756L0 0Z" fill="#0f7461"></path></g></svg>