<svg id="visual" viewBox="0 0 1920 1080" width="1920" height="1080" xmlns="http://www.w3.org/2000/svg" xmlns:xlink="http://www.w3.org/1999/xlink" version="1.1"><path d="M591 0L544.5 25.7C498 51.3 405 102.7 367.3 154.2C329.7 205.7 347.3 257.3 406.7 308.8C466 360.3 567 411.7 608.2 463C649.3 514.3 630.7 565.7 589.8 617C549 668.3 486 719.7 435.8 771.2C385.7 822.7 348.3 874.3 335 925.8C321.7 977.3 332.3 1028.7 337.7 1054.3L343 1080L0 1080L0 1054.3C0 1028.7 0 977.3 0 925.8C0 874.3 0 822.7 0 771.2C0 719.7 0 668.3 0 617C0 565.7 0 514.3 0 463C0 411.7 0 360.3 0 308.8C0 257.3 0 205.7 0 154.2C0 102.7 0 51.3 0 25.7L0 0Z" fill="#20c2a4" stroke-linecap="round" stroke-linejoin="miter"></path></svg>